/* XPM */
static char *_af8caa5baa84fe7dac958d13819f3a4nb1KjsqLq4wAUnYd[] = {
/* columns rows colors chars-per-pixel */
"16 16 4 1 ",
"  c #2F2727",
". c #3C3636",
"X c #514B4B",
"o c #837C7C",
/* pixels */
".o...    .XX.o X",
"...   X  ....  .",
"... ..o ooo.. .o",
" X.  . o.... o.X",
"  .o     o.  o..",
". .oo. .   ...oX",
".. X.. .X   ...o",
".. X.. X. .X X..",
"o.. .o oX .X.  o",
"...  o .. ...X. ",
".o o   .X X..X..",
"..o.  ooX ..XX.o",
".o.    Xo. .oo..",
".XX .o  XX  XXX.",
".  o..o  ..    .",
"X  oo.o.  o.o..."
};
