/* XPM */
static char *de723e06e7b9401ab41356abb2fe02cfu1mjufOyeE3VBgWn[] = {
/* columns rows colors chars-per-pixel */
"16 16 88 1 ",
"  c #A9A36C",
". c #B0AA72",
"X c #B3AD76",
"o c #BBB37E",
"O c #BCB67E",
"+ c #BEB77F",
"@ c #BFB882",
"# c #BFB488",
"$ c #C1BA83",
"% c #C2BC84",
"& c #C5BE86",
"* c #C7BF89",
"= c #C7BE8D",
"- c #C9BD91",
"; c #CBBF94",
": c #C6C089",
"> c #C8C18C",
", c #CAC48D",
"< c #CDC78F",
"1 c #CDC790",
"2 c #CEC790",
"3 c #CFC892",
"4 c #D0C795",
"5 c #D0CA92",
"6 c #D1CA93",
"7 c #D1CB93",
"8 c #D2CB95",
"9 c #D3CC95",
"0 c #D6CF97",
"q c #D0C499",
"w c #D6CF98",
"e c #D5CC9A",
"r c #D7CB9F",
"t c #D7CD9D",
"y c #D9CF9E",
"u c #D6D097",
"i c #D7D199",
"p c #D8D19B",
"a c #D8D29A",
"s c #DAD49C",
"d c #DBD59C",
"f c #DBD59D",
"g c #DCD59F",
"h c #D8CDA2",
"j c #D9CDA2",
"k c #DBCFA4",
"l c #DCD1A1",
"z c #DED3A3",
"x c #DDD7A0",
"c c #DED7A1",
"v c #DDD4A3",
"b c #DED3A7",
"n c #DFD8A2",
"m c #DED8A6",
"M c #DFD3A9",
"N c #E1D7A7",
"B c #E0D9A2",
"V c #E2DAA4",
"C c #E3DDA6",
"Z c #E4DEA7",
"A c #E0D4A8",
"S c #E0D5AA",
"D c #E2D8A8",
"F c #E5DEA8",
"G c #E5D9AE",
"H c #E6D9AE",
"J c #E6DDAC",
"K c #E8DFAE",
"L c #E7DBB1",
"P c #E8DCB1",
"I c #E9E3AB",
"U c #E9E3AC",
"Y c #EFE7B2",
"T c #EDE1B6",
"R c #EEE4B6",
"E c #EEE8B1",
"W c #F1EAB4",
"Q c #F1E6BA",
"! c #F4E8BD",
"~ c #FBF4BD",
"^ c #EEEACC",
"/ c #F9EEC2",
"( c #FFFAC2",
") c #FFF7CC",
"_ c #F7F5D2",
"` c #FFFED2",
"' c #FBFBEA",
"] c #FFFFF1",
/* pixels */
"=DNdLg6iZnicl_,d",
"caSL$666PL'ccivU",
"ST/wwwddnMPUy26/",
"2wic6c6c.8dmJJd@",
"Z0PwPPHL339Hh%T,",
"<B2]0UcAiWd&26d%",
"OS;d@Va6iwP)dPch",
"aiHaa6F~cqi9nM^H",
"cMTPS6PM8`@cwkvd",
"%iHigv69dcdYdMhU",
"VM H*PihQEFwd'wd",
"2HC;ciddcdd(992o",
"Tc6Yn9B+*ca4MG2i",
"nL1X369!M!LcCiHr",
"Mhi3MrdV>c@eG12M",
"iCi@`n:TdQ2vvdi:"
};
